<svg id="visual" viewBox="0 0 1879 100" width="1879" height="100" xmlns="http://www.w3.org/2000/svg" xmlns:xlink="http://www.w3.org/1999/xlink" version="1.1"><path d="M0 14L82 20L163 20L245 18L327 24L408 13L490 18L572 13L654 22L735 16L817 17L899 18L980 19L1062 14L1144 19L1225 12L1307 18L1389 16L1471 16L1552 11L1634 12L1716 14L1797 22L1879 22L1879 0L1797 0L1716 0L1634 0L1552 0L1471 0L1389 0L1307 0L1225 0L1144 0L1062 0L980 0L899 0L817 0L735 0L654 0L572 0L490 0L408 0L327 0L245 0L163 0L82 0L0 0Z" fill="#072e86"></path><path d="M0 27L82 31L163 26L245 30L327 33L408 19L490 27L572 27L654 29L735 22L817 25L899 31L980 30L1062 24L1144 33L1225 19L1307 26L1389 28L1471 25L1552 26L1634 24L1716 29L1797 31L1879 29L1879 20L1797 20L1716 12L1634 10L1552 9L1471 14L1389 14L1307 16L1225 10L1144 17L1062 12L980 17L899 16L817 15L735 14L654 20L572 11L490 16L408 11L327 22L245 16L163 18L82 18L0 12Z" fill="#153795"></path><path d="M0 49L82 56L163 55L245 49L327 54L408 53L490 42L572 58L654 55L735 48L817 51L899 59L980 59L1062 59L1144 56L1225 43L1307 59L1389 55L1471 56L1552 52L1634 55L1716 62L1797 66L1879 45L1879 27L1797 29L1716 27L1634 22L1552 24L1471 23L1389 26L1307 24L1225 17L1144 31L1062 22L980 28L899 29L817 23L735 20L654 27L572 25L490 25L408 17L327 31L245 28L163 24L82 29L0 25Z" fill="#1f3fa3"></path><path d="M0 82L82 78L163 82L245 76L327 84L408 75L490 78L572 85L654 75L735 79L817 84L899 84L980 77L1062 79L1144 80L1225 75L1307 82L1389 77L1471 77L1552 81L1634 75L1716 81L1797 83L1879 83L1879 43L1797 64L1716 60L1634 53L1552 50L1471 54L1389 53L1307 57L1225 41L1144 54L1062 57L980 57L899 57L817 49L735 46L654 53L572 56L490 40L408 51L327 52L245 47L163 53L82 54L0 47Z" fill="#2949b3"></path><path d="M0 91L82 95L163 92L245 90L327 94L408 93L490 95L572 95L654 92L735 90L817 95L899 95L980 93L1062 95L1144 88L1225 89L1307 93L1389 90L1471 89L1552 94L1634 88L1716 94L1797 91L1879 92L1879 81L1797 81L1716 79L1634 73L1552 79L1471 75L1389 75L1307 80L1225 73L1144 78L1062 77L980 75L899 82L817 82L735 77L654 73L572 83L490 76L408 73L327 82L245 74L163 80L82 76L0 80Z" fill="#3252c2"></path><path d="M0 101L82 101L163 101L245 101L327 101L408 101L490 101L572 101L654 101L735 101L817 101L899 101L980 101L1062 101L1144 101L1225 101L1307 101L1389 101L1471 101L1552 101L1634 101L1716 101L1797 101L1879 101L1879 90L1797 89L1716 92L1634 86L1552 92L1471 87L1389 88L1307 91L1225 87L1144 86L1062 93L980 91L899 93L817 93L735 88L654 90L572 93L490 93L408 91L327 92L245 88L163 90L82 93L0 89Z" fill="#3b5bd2"></path></svg>