<svg id="visual" viewBox="0 0 1879 100" width="1879" height="100" xmlns="http://www.w3.org/2000/svg" xmlns:xlink="http://www.w3.org/1999/xlink" version="1.1"><path d="M0 19L13.7 17.8C27.3 16.7 54.7 14.3 81.8 12.3C109 10.3 136 8.7 163.2 9.8C190.3 11 217.7 15 245 15.5C272.3 16 299.7 13 326.8 12.3C354 11.7 381 13.3 408.2 15C435.3 16.7 462.7 18.3 490 17.2C517.3 16 544.7 12 572 11.5C599.3 11 626.7 14 653.8 15.5C681 17 708 17 735.2 17.2C762.3 17.3 789.7 17.7 817 16.7C844.3 15.7 871.7 13.3 898.8 12.2C926 11 953 11 980.2 9.7C1007.3 8.3 1034.7 5.7 1062 5C1089.3 4.3 1116.7 5.7 1143.8 7.3C1171 9 1198 11 1225.2 10.2C1252.3 9.3 1279.7 5.7 1307 6.5C1334.3 7.3 1361.7 12.7 1389 12.8C1416.3 13 1443.7 8 1470.8 7.3C1498 6.7 1525 10.3 1552.2 13C1579.3 15.7 1606.7 17.3 1634 18C1661.3 18.7 1688.7 18.3 1715.8 18.2C1743 18 1770 18 1797.2 17.7C1824.3 17.3 1851.7 16.7 1865.3 16.3L1879 16L1879 0L1865.3 0C1851.7 0 1824.3 0 1797.2 0C1770 0 1743 0 1715.8 0C1688.7 0 1661.3 0 1634 0C1606.7 0 1579.3 0 1552.2 0C1525 0 1498 0 1470.8 0C1443.7 0 1416.3 0 1389 0C1361.7 0 1334.3 0 1307 0C1279.7 0 1252.3 0 1225.2 0C1198 0 1171 0 1143.8 0C1116.7 0 1089.3 0 1062 0C1034.7 0 1007.3 0 980.2 0C953 0 926 0 898.8 0C871.7 0 844.3 0 817 0C789.7 0 762.3 0 735.2 0C708 0 681 0 653.8 0C626.7 0 599.3 0 572 0C544.7 0 517.3 0 490 0C462.7 0 435.3 0 408.2 0C381 0 354 0 326.8 0C299.7 0 272.3 0 245 0C217.7 0 190.3 0 163.2 0C136 0 109 0 81.8 0C54.7 0 27.3 0 13.7 0L0 0Z" fill="#181c83"></path><path d="M0 30L13.7 28C27.3 26 54.7 22 81.8 21.5C109 21 136 24 163.2 24.3C190.3 24.7 217.7 22.3 245 23C272.3 23.7 299.7 27.3 326.8 28C354 28.7 381 26.3 408.2 26.2C435.3 26 462.7 28 490 28.7C517.3 29.3 544.7 28.7 572 29C599.3 29.3 626.7 30.7 653.8 30.3C681 30 708 28 735.2 25.7C762.3 23.3 789.7 20.7 817 19.5C844.3 18.3 871.7 18.7 898.8 18.2C926 17.7 953 16.3 980.2 17.5C1007.3 18.7 1034.7 22.3 1062 22.3C1089.3 22.3 1116.7 18.7 1143.8 19.7C1171 20.7 1198 26.3 1225.2 24.8C1252.3 23.3 1279.7 14.7 1307 15C1334.3 15.3 1361.7 24.7 1389 25.8C1416.3 27 1443.7 20 1470.8 18.5C1498 17 1525 21 1552.2 24.8C1579.3 28.7 1606.7 32.3 1634 32.2C1661.3 32 1688.7 28 1715.8 26.2C1743 24.3 1770 24.7 1797.2 23.8C1824.3 23 1851.7 21 1865.3 20L1879 19L1879 14L1865.3 14.3C1851.7 14.7 1824.3 15.3 1797.2 15.7C1770 16 1743 16 1715.8 16.2C1688.7 16.3 1661.3 16.7 1634 16C1606.7 15.3 1579.3 13.7 1552.2 11C1525 8.3 1498 4.7 1470.8 5.3C1443.7 6 1416.3 11 1389 10.8C1361.7 10.7 1334.3 5.3 1307 4.5C1279.7 3.7 1252.3 7.3 1225.2 8.2C1198 9 1171 7 1143.8 5.3C1116.7 3.7 1089.3 2.3 1062 3C1034.7 3.7 1007.3 6.3 980.2 7.7C953 9 926 9 898.8 10.2C871.7 11.3 844.3 13.7 817 14.7C789.7 15.7 762.3 15.3 735.2 15.2C708 15 681 15 653.8 13.5C626.7 12 599.3 9 572 9.5C544.7 10 517.3 14 490 15.2C462.7 16.3 435.3 14.7 408.2 13C381 11.3 354 9.7 326.8 10.3C299.7 11 272.3 14 245 13.5C217.7 13 190.3 9 163.2 7.8C136 6.7 109 8.3 81.8 10.3C54.7 12.3 27.3 14.7 13.7 15.8L0 17Z" fill="#232597"></path><path d="M0 50L13.7 44.8C27.3 39.7 54.7 29.3 81.8 26C109 22.7 136 26.3 163.2 27.8C190.3 29.3 217.7 28.7 245 30.7C272.3 32.7 299.7 37.3 326.8 37.3C354 37.3 381 32.7 408.2 34C435.3 35.3 462.7 42.7 490 45C517.3 47.3 544.7 44.7 572 42.7C599.3 40.7 626.7 39.3 653.8 40.7C681 42 708 46 735.2 46.8C762.3 47.7 789.7 45.3 817 43.8C844.3 42.3 871.7 41.7 898.8 37.8C926 34 953 27 980.2 24.5C1007.3 22 1034.7 24 1062 27.7C1089.3 31.3 1116.7 36.7 1143.8 37.7C1171 38.7 1198 35.3 1225.2 32.2C1252.3 29 1279.7 26 1307 28.7C1334.3 31.3 1361.7 39.7 1389 41.5C1416.3 43.3 1443.7 38.7 1470.8 35.7C1498 32.7 1525 31.3 1552.2 31.8C1579.3 32.3 1606.7 34.7 1634 36.3C1661.3 38 1688.7 39 1715.8 38C1743 37 1770 34 1797.2 33.5C1824.3 33 1851.7 35 1865.3 36L1879 37L1879 17L1865.3 18C1851.7 19 1824.3 21 1797.2 21.8C1770 22.7 1743 22.3 1715.8 24.2C1688.7 26 1661.3 30 1634 30.2C1606.7 30.3 1579.3 26.7 1552.2 22.8C1525 19 1498 15 1470.8 16.5C1443.7 18 1416.3 25 1389 23.8C1361.7 22.7 1334.3 13.3 1307 13C1279.7 12.7 1252.3 21.3 1225.2 22.8C1198 24.3 1171 18.7 1143.8 17.7C1116.7 16.7 1089.3 20.3 1062 20.3C1034.7 20.3 1007.3 16.7 980.2 15.5C953 14.3 926 15.7 898.8 16.2C871.7 16.7 844.3 16.3 817 17.5C789.7 18.7 762.3 21.3 735.2 23.7C708 26 681 28 653.8 28.3C626.7 28.7 599.3 27.3 572 27C544.7 26.7 517.3 27.3 490 26.7C462.7 26 435.3 24 408.2 24.2C381 24.3 354 26.7 326.8 26C299.7 25.3 272.3 21.7 245 21C217.7 20.3 190.3 22.7 163.2 22.3C136 22 109 19 81.8 19.5C54.7 20 27.3 24 13.7 26L0 28Z" fill="#2d2fab"></path><path d="M0 61L13.7 61.5C27.3 62 54.7 63 81.8 61.8C109 60.7 136 57.3 163.2 59.7C190.3 62 217.7 70 245 70.8C272.3 71.7 299.7 65.3 326.8 67.2C354 69 381 79 408.2 81.2C435.3 83.3 462.7 77.7 490 75.8C517.3 74 544.7 76 572 72.5C599.3 69 626.7 60 653.8 60.2C681 60.3 708 69.7 735.2 70.7C762.3 71.7 789.7 64.3 817 67.3C844.3 70.3 871.7 83.7 898.8 82.8C926 82 953 67 980.2 55.2C1007.3 43.3 1034.7 34.7 1062 41.7C1089.3 48.7 1116.7 71.3 1143.8 79.7C1171 88 1198 82 1225.2 74.5C1252.3 67 1279.7 58 1307 57.5C1334.3 57 1361.7 65 1389 71.5C1416.3 78 1443.7 83 1470.8 79.8C1498 76.7 1525 65.3 1552.2 65.2C1579.3 65 1606.7 76 1634 80.7C1661.3 85.3 1688.7 83.7 1715.8 76.2C1743 68.7 1770 55.3 1797.2 50.8C1824.3 46.3 1851.7 50.7 1865.3 52.8L1879 55L1879 35L1865.3 34C1851.7 33 1824.3 31 1797.2 31.5C1770 32 1743 35 1715.8 36C1688.7 37 1661.3 36 1634 34.3C1606.7 32.7 1579.3 30.3 1552.2 29.8C1525 29.3 1498 30.7 1470.8 33.7C1443.7 36.7 1416.3 41.3 1389 39.5C1361.7 37.7 1334.3 29.3 1307 26.7C1279.7 24 1252.3 27 1225.2 30.2C1198 33.3 1171 36.7 1143.8 35.7C1116.7 34.7 1089.3 29.3 1062 25.7C1034.7 22 1007.3 20 980.2 22.5C953 25 926 32 898.8 35.8C871.7 39.7 844.3 40.3 817 41.8C789.7 43.3 762.3 45.7 735.2 44.8C708 44 681 40 653.8 38.7C626.7 37.3 599.3 38.7 572 40.7C544.7 42.7 517.3 45.3 490 43C462.7 40.7 435.3 33.3 408.2 32C381 30.7 354 35.3 326.8 35.3C299.7 35.3 272.3 30.7 245 28.7C217.7 26.7 190.3 27.3 163.2 25.8C136 24.3 109 20.7 81.8 24C54.7 27.3 27.3 37.7 13.7 42.8L0 48Z" fill="#3739c0"></path><path d="M0 90L13.7 88C27.3 86 54.7 82 81.8 82.7C109 83.3 136 88.7 163.2 90C190.3 91.3 217.7 88.7 245 87C272.3 85.3 299.7 84.7 326.8 86.2C354 87.7 381 91.3 408.2 91.7C435.3 92 462.7 89 490 87.7C517.3 86.3 544.7 86.7 572 84.2C599.3 81.7 626.7 76.3 653.8 77C681 77.7 708 84.3 735.2 89.3C762.3 94.3 789.7 97.7 817 99.2C844.3 100.7 871.7 100.3 898.8 96.3C926 92.3 953 84.7 980.2 78.8C1007.3 73 1034.7 69 1062 72C1089.3 75 1116.7 85 1143.8 88.3C1171 91.7 1198 88.3 1225.2 85.3C1252.3 82.3 1279.7 79.7 1307 81.3C1334.3 83 1361.7 89 1389 92C1416.3 95 1443.7 95 1470.8 95.5C1498 96 1525 97 1552.2 95.8C1579.3 94.7 1606.7 91.3 1634 91.8C1661.3 92.3 1688.7 96.7 1715.8 97C1743 97.3 1770 93.7 1797.2 89.3C1824.3 85 1851.7 80 1865.3 77.5L1879 75L1879 53L1865.3 50.8C1851.7 48.7 1824.3 44.3 1797.2 48.8C1770 53.3 1743 66.7 1715.8 74.2C1688.7 81.7 1661.3 83.3 1634 78.7C1606.7 74 1579.3 63 1552.2 63.2C1525 63.3 1498 74.7 1470.8 77.8C1443.7 81 1416.3 76 1389 69.5C1361.7 63 1334.3 55 1307 55.5C1279.7 56 1252.3 65 1225.2 72.5C1198 80 1171 86 1143.8 77.7C1116.7 69.3 1089.3 46.7 1062 39.7C1034.7 32.7 1007.3 41.3 980.2 53.2C953 65 926 80 898.8 80.8C871.7 81.7 844.3 68.3 817 65.3C789.7 62.3 762.3 69.7 735.2 68.7C708 67.7 681 58.3 653.8 58.2C626.7 58 599.3 67 572 70.5C544.7 74 517.3 72 490 73.8C462.7 75.7 435.3 81.3 408.2 79.2C381 77 354 67 326.8 65.2C299.7 63.3 272.3 69.7 245 68.8C217.7 68 190.3 60 163.2 57.7C136 55.3 109 58.7 81.8 59.8C54.7 61 27.3 60 13.7 59.5L0 59Z" fill="#4143d5"></path><path d="M0 101L13.7 101C27.3 101 54.7 101 81.8 101C109 101 136 101 163.2 101C190.3 101 217.7 101 245 101C272.3 101 299.7 101 326.8 101C354 101 381 101 408.2 101C435.3 101 462.7 101 490 101C517.3 101 544.7 101 572 101C599.3 101 626.7 101 653.8 101C681 101 708 101 735.2 101C762.3 101 789.7 101 817 101C844.3 101 871.7 101 898.8 101C926 101 953 101 980.2 101C1007.3 101 1034.7 101 1062 101C1089.3 101 1116.7 101 1143.8 101C1171 101 1198 101 1225.2 101C1252.3 101 1279.7 101 1307 101C1334.3 101 1361.7 101 1389 101C1416.3 101 1443.7 101 1470.8 101C1498 101 1525 101 1552.2 101C1579.3 101 1606.7 101 1634 101C1661.3 101 1688.7 101 1715.8 101C1743 101 1770 101 1797.2 101C1824.3 101 1851.7 101 1865.3 101L1879 101L1879 73L1865.3 75.5C1851.7 78 1824.3 83 1797.2 87.3C1770 91.7 1743 95.3 1715.8 95C1688.7 94.7 1661.3 90.3 1634 89.8C1606.7 89.3 1579.3 92.7 1552.2 93.8C1525 95 1498 94 1470.8 93.5C1443.7 93 1416.3 93 1389 90C1361.7 87 1334.3 81 1307 79.3C1279.7 77.7 1252.3 80.3 1225.2 83.3C1198 86.3 1171 89.7 1143.8 86.3C1116.7 83 1089.3 73 1062 70C1034.7 67 1007.3 71 980.2 76.8C953 82.7 926 90.3 898.8 94.3C871.7 98.3 844.3 98.7 817 97.2C789.7 95.7 762.3 92.3 735.2 87.3C708 82.3 681 75.7 653.8 75C626.7 74.3 599.3 79.7 572 82.2C544.7 84.7 517.3 84.3 490 85.7C462.7 87 435.3 90 408.2 89.7C381 89.3 354 85.7 326.8 84.2C299.7 82.7 272.3 83.3 245 85C217.7 86.7 190.3 89.3 163.2 88C136 86.7 109 81.3 81.8 80.7C54.7 80 27.3 84 13.7 86L0 88Z" fill="#4a4eeb"></path></svg>