<svg id="visual" viewBox="0 0 540 960" width="540" height="960" xmlns="http://www.w3.org/2000/svg" xmlns:xlink="http://www.w3.org/1999/xlink" version="1.1"><rect x="0" y="0" width="540" height="960" fill="#3b7c2d"></rect><defs><linearGradient id="grad1_0" x1="0%" y1="100%" x2="100%" y2="0%"><stop offset="30%" stop-color="#3b7c2d" stop-opacity="1"></stop><stop offset="70%" stop-color="#3b7c2d" stop-opacity="1"></stop></linearGradient></defs><defs><linearGradient id="grad2_0" x1="0%" y1="100%" x2="100%" y2="0%"><stop offset="30%" stop-color="#3b7c2d" stop-opacity="1"></stop><stop offset="70%" stop-color="#3b7c2d" stop-opacity="1"></stop></linearGradient></defs><g transform="translate(540, 960)"><path d="M-540 0C-447.5 -12.5 -355.1 -25 -333.6 -40.5C-312 -56 -361.5 -74.4 -386.4 -95.2C-411.4 -116.1 -411.9 -139.5 -389 -147.5C-366.1 -155.5 -319.8 -148.1 -331.2 -173.8C-342.6 -199.6 -411.7 -258.5 -441.1 -304.5C-470.6 -350.5 -460.4 -383.6 -404.2 -358.1C-348 -332.6 -245.8 -248.6 -217.5 -245.5C-189.2 -242.4 -234.7 -320.2 -232.9 -337.4C-231.1 -354.6 -181.9 -311.2 -161.7 -308.1C-141.6 -305.1 -150.5 -342.5 -152.8 -403C-155.2 -463.5 -150.9 -547.1 -129 -523.3C-107 -499.6 -67.4 -368.5 -42.9 -353.4C-18.5 -338.3 -9.2 -439.1 0 -540L0 0Z" fill="#982e2e"></path></g><g transform="translate(0, 0)"><path d="M540 0C525.2 19.1 510.3 38.2 513.2 62.3C516.1 86.4 536.8 115.6 491.3 121.1C445.8 126.6 334.2 108.5 310.4 117.7C286.7 127 350.7 163.5 400.2 210.1C449.7 256.6 484.7 313.1 444.4 306.8C404.1 300.4 288.6 231.2 244.8 216.8C200.9 202.5 228.6 242.9 228.8 258.2C228.9 273.6 201.5 263.9 190.9 276.5C180.3 289.1 186.5 324 186.4 355.1C186.3 386.1 179.8 413.3 168.8 445.1C157.7 476.8 142 513.1 118.2 479.6C94.4 446.2 62.5 343.1 41.5 341.5C20.4 339.9 10.2 440 0 540L0 0Z" fill="#982e2e"></path></g></svg>