<svg id="visual" viewBox="0 0 1879 100" width="1879" height="100" xmlns="http://www.w3.org/2000/svg" xmlns:xlink="http://www.w3.org/1999/xlink" version="1.1"><rect x="0" y="0" width="1879" height="100" fill="#000916"></rect><path d="M0 29L22.3 32.3C44.7 35.7 89.3 42.3 134 47.3C178.7 52.3 223.3 55.7 268.2 55C313 54.3 358 49.7 402.8 49.2C447.7 48.7 492.3 52.3 537 50.5C581.7 48.7 626.3 41.3 671 36.5C715.7 31.7 760.3 29.3 805.2 33C850 36.7 895 46.3 939.8 49.8C984.7 53.3 1029.3 50.7 1074 43.3C1118.7 36 1163.3 24 1208 23.8C1252.7 23.7 1297.3 35.3 1342 41.8C1386.7 48.3 1431.3 49.7 1476.2 52C1521 54.3 1566 57.7 1610.8 57C1655.7 56.3 1700.3 51.7 1745 43.2C1789.7 34.7 1834.3 22.3 1856.7 16.2L1879 10L1879 101L1856.7 101C1834.3 101 1789.7 101 1745 101C1700.3 101 1655.7 101 1610.8 101C1566 101 1521 101 1476.2 101C1431.3 101 1386.7 101 1342 101C1297.3 101 1252.7 101 1208 101C1163.3 101 1118.7 101 1074 101C1029.3 101 984.7 101 939.8 101C895 101 850 101 805.2 101C760.3 101 715.7 101 671 101C626.3 101 581.7 101 537 101C492.3 101 447.7 101 402.8 101C358 101 313 101 268.2 101C223.3 101 178.7 101 134 101C89.3 101 44.7 101 22.3 101L0 101Z" fill="#3e6865"></path><path d="M0 41L22.3 44C44.7 47 89.3 53 134 51.7C178.7 50.3 223.3 41.7 268.2 38.2C313 34.7 358 36.3 402.8 36.3C447.7 36.3 492.3 34.7 537 36.5C581.7 38.3 626.3 43.7 671 45.7C715.7 47.7 760.3 46.3 805.2 48C850 49.7 895 54.3 939.8 52.5C984.7 50.7 1029.3 42.3 1074 42.3C1118.7 42.3 1163.3 50.7 1208 50.3C1252.7 50 1297.3 41 1342 37C1386.7 33 1431.3 34 1476.2 35.3C1521 36.7 1566 38.3 1610.8 37C1655.7 35.7 1700.3 31.3 1745 31.3C1789.7 31.3 1834.3 35.7 1856.7 37.8L1879 40L1879 101L1856.7 101C1834.3 101 1789.7 101 1745 101C1700.3 101 1655.7 101 1610.8 101C1566 101 1521 101 1476.2 101C1431.3 101 1386.7 101 1342 101C1297.3 101 1252.7 101 1208 101C1163.3 101 1118.7 101 1074 101C1029.3 101 984.7 101 939.8 101C895 101 850 101 805.2 101C760.3 101 715.7 101 671 101C626.3 101 581.7 101 537 101C492.3 101 447.7 101 402.8 101C358 101 313 101 268.2 101C223.3 101 178.7 101 134 101C89.3 101 44.7 101 22.3 101L0 101Z" fill="#598482"></path><path d="M0 76L22.3 73.2C44.7 70.3 89.3 64.7 134 62.2C178.7 59.7 223.3 60.3 268.2 57.5C313 54.7 358 48.3 402.8 44.2C447.7 40 492.3 38 537 39C581.7 40 626.3 44 671 45.8C715.7 47.7 760.3 47.3 805.2 50.7C850 54 895 61 939.8 64.8C984.7 68.7 1029.3 69.3 1074 66.7C1118.7 64 1163.3 58 1208 55.2C1252.7 52.3 1297.3 52.7 1342 54C1386.7 55.3 1431.3 57.7 1476.2 60.3C1521 63 1566 66 1610.8 63C1655.7 60 1700.3 51 1745 46.5C1789.7 42 1834.3 42 1856.7 42L1879 42L1879 101L1856.7 101C1834.3 101 1789.7 101 1745 101C1700.3 101 1655.7 101 1610.8 101C1566 101 1521 101 1476.2 101C1431.3 101 1386.7 101 1342 101C1297.3 101 1252.7 101 1208 101C1163.3 101 1118.7 101 1074 101C1029.3 101 984.7 101 939.8 101C895 101 850 101 805.2 101C760.3 101 715.7 101 671 101C626.3 101 581.7 101 537 101C492.3 101 447.7 101 402.8 101C358 101 313 101 268.2 101C223.3 101 178.7 101 134 101C89.3 101 44.7 101 22.3 101L0 101Z" fill="#76a1a0"></path><path d="M0 63L22.3 60.8C44.7 58.7 89.3 54.3 134 54.8C178.7 55.3 223.3 60.7 268.2 65.2C313 69.7 358 73.3 402.8 72.8C447.7 72.3 492.3 67.7 537 68.2C581.7 68.7 626.3 74.3 671 72.5C715.7 70.7 760.3 61.3 805.2 57C850 52.7 895 53.3 939.8 56.2C984.7 59 1029.3 64 1074 66.8C1118.7 69.7 1163.3 70.3 1208 72C1252.7 73.7 1297.3 76.3 1342 73.2C1386.7 70 1431.3 61 1476.2 56.5C1521 52 1566 52 1610.8 51.7C1655.7 51.3 1700.3 50.7 1745 50.2C1789.7 49.7 1834.3 49.3 1856.7 49.2L1879 49L1879 101L1856.7 101C1834.3 101 1789.7 101 1745 101C1700.3 101 1655.7 101 1610.8 101C1566 101 1521 101 1476.2 101C1431.3 101 1386.7 101 1342 101C1297.3 101 1252.7 101 1208 101C1163.3 101 1118.7 101 1074 101C1029.3 101 984.7 101 939.8 101C895 101 850 101 805.2 101C760.3 101 715.7 101 671 101C626.3 101 581.7 101 537 101C492.3 101 447.7 101 402.8 101C358 101 313 101 268.2 101C223.3 101 178.7 101 134 101C89.3 101 44.7 101 22.3 101L0 101Z" fill="#93bfbf"></path><path d="M0 74L22.3 73.7C44.7 73.3 89.3 72.7 134 71.2C178.7 69.7 223.3 67.3 268.2 67.8C313 68.3 358 71.7 402.8 74.2C447.7 76.7 492.3 78.3 537 76C581.7 73.7 626.3 67.3 671 64.2C715.7 61 760.3 61 805.2 64.8C850 68.7 895 76.3 939.8 79C984.7 81.7 1029.3 79.3 1074 79.3C1118.7 79.3 1163.3 81.7 1208 78.8C1252.7 76 1297.3 68 1342 66.8C1386.7 65.7 1431.3 71.3 1476.2 72.3C1521 73.3 1566 69.7 1610.8 69.5C1655.7 69.3 1700.3 72.7 1745 76C1789.7 79.3 1834.3 82.7 1856.7 84.3L1879 86L1879 101L1856.7 101C1834.3 101 1789.7 101 1745 101C1700.3 101 1655.7 101 1610.8 101C1566 101 1521 101 1476.2 101C1431.3 101 1386.7 101 1342 101C1297.3 101 1252.7 101 1208 101C1163.3 101 1118.7 101 1074 101C1029.3 101 984.7 101 939.8 101C895 101 850 101 805.2 101C760.3 101 715.7 101 671 101C626.3 101 581.7 101 537 101C492.3 101 447.7 101 402.8 101C358 101 313 101 268.2 101C223.3 101 178.7 101 134 101C89.3 101 44.7 101 22.3 101L0 101Z" fill="#b1dede"></path><path d="M0 74L22.3 77C44.7 80 89.3 86 134 88.7C178.7 91.3 223.3 90.7 268.2 88.7C313 86.7 358 83.3 402.8 82.3C447.7 81.3 492.3 82.7 537 84C581.7 85.3 626.3 86.7 671 88.3C715.7 90 760.3 92 805.2 91.7C850 91.3 895 88.7 939.8 87.3C984.7 86 1029.3 86 1074 85.3C1118.7 84.7 1163.3 83.3 1208 81.2C1252.7 79 1297.3 76 1342 76.8C1386.7 77.7 1431.3 82.3 1476.2 84.2C1521 86 1566 85 1610.8 83.5C1655.7 82 1700.3 80 1745 78.3C1789.7 76.7 1834.3 75.3 1856.7 74.7L1879 74L1879 101L1856.7 101C1834.3 101 1789.7 101 1745 101C1700.3 101 1655.7 101 1610.8 101C1566 101 1521 101 1476.2 101C1431.3 101 1386.7 101 1342 101C1297.3 101 1252.7 101 1208 101C1163.3 101 1118.7 101 1074 101C1029.3 101 984.7 101 939.8 101C895 101 850 101 805.2 101C760.3 101 715.7 101 671 101C626.3 101 581.7 101 537 101C492.3 101 447.7 101 402.8 101C358 101 313 101 268.2 101C223.3 101 178.7 101 134 101C89.3 101 44.7 101 22.3 101L0 101Z" fill="#d1fdff"></path></svg>